<?xml version="1.0" standalone="no"?>
<!DOCTYPE svg PUBLIC "-//W3C//DTD SVG 20010904//EN"
 "http://www.w3.org/TR/2001/REC-SVG-20010904/DTD/svg10.dtd">
<svg version="1.0" xmlns="http://www.w3.org/2000/svg"
 width="1280.000000pt" height="1163.000000pt" viewBox="0 0 1280.000000 1163.000000"
 preserveAspectRatio="xMidYMid meet">
<metadata>
Created by potrace 1.15, written by Peter Selinger 2001-2017
</metadata>
<g transform="translate(0.000000,1163.000000) scale(0.100000,-0.100000)"
fill="#000000" stroke="none">
<path d="M9655 11620 c-173 -20 -396 -85 -548 -161 -279 -141 -518 -361 -739
-684 -339 -493 -460 -851 -493 -1455 -9 -151 15 -520 41 -652 l6 -28 -80 0
c-163 0 -340 -60 -444 -150 -103 -89 -212 -294 -246 -459 l-17 -87 -35 14
c-19 8 -36 15 -38 17 -1 1 12 33 29 71 48 105 135 333 191 494 53 156 128 413
128 439 0 26 -127 188 -240 305 -228 237 -501 427 -979 682 -445 238 -468 252
-482 287 -40 104 -193 390 -264 497 -105 157 -159 218 -248 281 -83 58 -146
79 -236 79 -123 -1 -251 -77 -363 -218 -101 -128 -101 -90 -2 -333 142 -349
249 -607 301 -723 l49 -110 160 -71 c340 -152 425 -192 614 -287 290 -145 490
-270 649 -406 l33 -28 10 -343 c6 -188 7 -402 3 -474 l-7 -132 -76 -22 c-43
-12 -84 -24 -93 -28 -12 -5 -22 15 -48 102 -46 149 -133 395 -193 538 -62 149
-251 533 -315 640 l-48 79 -120 52 c-267 115 -614 217 -1418 419 -298 75 -544
138 -548 141 -4 2 -51 83 -104 180 -231 417 -433 673 -639 805 -267 174 -528
85 -724 -245 -34 -56 -64 -109 -67 -118 -7 -17 104 -247 192 -398 120 -206
475 -734 508 -755 11 -7 274 -77 585 -155 811 -204 1181 -313 1540 -453 l135
-53 96 -190 c94 -188 203 -433 196 -441 -3 -2 -29 10 -58 28 -96 56 -361 185
-472 229 l-108 43 -147 -53 c-272 -97 -595 -217 -857 -320 -748 -293 -1201
-440 -1671 -539 l-131 -28 -39 29 c-94 71 -460 310 -578 377 -162 93 -324 165
-446 198 -78 21 -118 26 -220 27 -112 1 -133 -2 -205 -27 -104 -37 -163 -74
-257 -166 -97 -92 -101 -114 -36 -200 208 -275 817 -707 1447 -1026 l174 -88
61 12 c241 49 638 169 1296 390 721 242 1026 332 1302 384 126 24 127 24 158
4 l31 -19 -118 -54 c-191 -88 -495 -244 -688 -354 -661 -377 -1187 -830 -1595
-1375 -327 -438 -634 -1004 -834 -1539 -134 -356 -247 -825 -291 -1201 -60
-525 -36 -951 85 -1502 13 -59 -1 -53 195 -78 554 -69 1227 -55 1861 40 1361
203 2716 747 3609 1449 246 193 550 481 725 686 84 98 234 300 269 361 l28 49
137 -280 138 -280 -53 -158 c-118 -358 -257 -632 -697 -1373 l-151 -255 49
-350 c62 -438 140 -1014 147 -1076 l6 -48 50 0 c75 0 255 70 371 144 165 106
244 230 267 423 12 98 4 190 -41 463 -16 96 -30 189 -32 205 -1 23 17 58 78
150 219 327 447 722 678 1175 l171 335 5 -521 5 -520 66 -80 c79 -93 222 -233
409 -399 190 -168 375 -354 459 -462 40 -51 74 -93 76 -93 9 0 133 242 157
307 100 267 71 559 -83 815 -76 126 -150 217 -266 328 l-105 100 11 208 c44
827 101 1956 100 1992 0 32 -9 42 -116 130 -63 52 -136 112 -160 133 -66 56
-369 281 -508 378 -171 119 -174 121 -150 114 11 -4 187 -40 390 -81 493 -99
494 -99 522 -149 65 -114 140 -358 229 -740 30 -132 78 -333 105 -446 l50
-206 102 -21 c56 -12 201 -40 322 -62 306 -56 500 -112 648 -187 l49 -24 54
42 c168 129 230 270 190 427 -45 177 -149 288 -346 373 -95 41 -283 92 -407
110 l-82 12 -15 86 c-21 118 -40 250 -82 571 -37 286 -61 418 -94 531 l-20 67
-103 45 c-180 79 -505 174 -912 267 -186 43 -788 191 -792 194 -2 1 -6 17 -9
35 l-7 32 109 -7 c312 -19 631 89 737 251 64 97 94 197 104 352 4 62 10 92 17
89 6 -2 70 -32 141 -64 324 -149 650 -227 1005 -239 636 -22 1216 173 1715
574 127 102 257 239 369 386 58 78 55 87 -90 272 -69 88 -127 161 -129 163 -1
2 -35 -18 -75 -43 -40 -25 -74 -44 -77 -41 -3 3 4 49 17 101 12 53 20 98 18
100 -5 5 -220 51 -346 75 -62 11 -119 23 -126 26 -9 3 -35 -30 -76 -96 -157
-253 -314 -411 -490 -494 -41 -19 -90 -37 -107 -41 -32 -6 -33 -6 -33 27 0 52
-39 109 -92 138 -44 23 -50 24 -105 12 -125 -26 -254 -121 -309 -227 -29 -56
-29 -56 -109 -80 -348 -105 -604 -119 -965 -53 -63 11 -118 24 -123 27 -7 7
-39 173 -34 176 1 1 79 20 172 42 l170 40 2 204 c2 157 -1 227 -15 304 -17 98
-18 100 -47 106 -56 12 -190 9 -250 -6 -33 -8 -63 -14 -66 -15 -3 0 9 55 27
123 19 67 37 134 40 148 6 25 2 28 -68 54 -40 16 -172 68 -294 116 -121 48
-229 89 -239 91 -22 4 -62 -62 -131 -212 -23 -52 -47 -96 -52 -98 -6 -2 -52
20 -105 48 l-94 50 -7 48 c-44 317 10 597 168 876 l51 88 150 73 c156 75 248
143 281 207 23 44 20 130 -6 183 -20 42 -67 91 -107 113 -16 9 -12 15 31 54
190 168 373 255 585 279 85 10 122 9 241 -6 78 -9 143 -15 145 -13 3 2 14 125
25 274 11 148 21 288 24 312 3 37 1 42 -18 42 -18 0 -16 3 12 20 l32 20 0 229
0 229 -27 6 c-49 11 -405 15 -488 6z m-400 -3418 l90 -47 21 -75 c12 -41 25
-94 28 -116 l7 -41 -40 -10 -40 -11 -44 77 c-25 42 -69 110 -100 151 -52 70
-54 76 -40 97 9 13 18 23 22 23 3 -1 47 -22 96 -48z m-547 -3955 l162 -139 0
-216 0 -217 -52 95 c-57 106 -318 634 -318 645 0 8 16 -4 208 -168z"/>
</g>
</svg>
